<svg width="45" height="46" viewBox="0 0 45 46" fill="none" xmlns="http://www.w3.org/2000/svg">
<path fill-rule="evenodd" clip-rule="evenodd" d="M43.961 10.5756L44.0736 33.314C44.0807 34.4995 43.3344 35.5218 42.2853 35.9549V35.962L22.6845 43.9484C22.5156 43.9768 22.3466 43.9981 22.1706 43.9981C21.7904 43.9981 21.4173 43.92 21.0652 43.771L1.77421 36.3311V36.324C0.732214 35.8839 0 34.8332 0 33.6051L0.105609 11.1577C0.0915278 10.9164 0.105607 10.675 0.14785 10.4336C0.154891 10.0929 0.225298 9.75211 0.359068 9.43975C0.66181 8.70145 1.24617 8.15481 1.94318 7.87085L20.7977 0.218028C21.5651 -0.0943321 22.3888 -0.0588366 23.0929 0.246424L41.9122 7.11125C43.0387 7.523 43.7498 8.54527 43.7991 9.64563C43.9047 9.94379 43.961 10.2561 43.961 10.5756ZM18.4743 39.2204L18.6151 19.414L3.52026 12.8331L3.20343 32.7248L18.4743 39.2204ZM40.7364 12.8402L23.8674 19.4211L24.0011 39.2062L40.835 32.8668L40.7364 12.8402Z" fill="#2F5FAB"/>
<circle cx="21.5" cy="39.5" r="6" fill="#2F5FAB" stroke="#F3F3F3"/>
<path d="M23.25 38.3333L24.4167 39.5M24.4167 39.5L23.25 40.6667M24.4167 39.5H18.5833" stroke="#FAA919" stroke-width="0.7" stroke-linecap="round" stroke-linejoin="round"/>
</svg>
